<svg width="142" height="112" viewBox="0 0 142 112" fill="none" xmlns="http://www.w3.org/2000/svg">
<g id="Dotted Shape">
<circle id="Ellipse 1" cx="2.36821" cy="109.82" r="1.75993" transform="rotate(-90 2.36821 109.82)" fill="#3056D3"/>
<circle id="Ellipse 6" cx="17.8555" cy="109.82" r="1.75993" transform="rotate(-90 17.8555 109.82)" fill="#3056D3"/>
<circle id="Ellipse 11" cx="33.3431" cy="109.82" r="1.75993" transform="rotate(-90 33.3431 109.82)" fill="#3056D3"/>
<circle id="Ellipse 16" cx="48.8305" cy="109.82" r="1.75993" transform="rotate(-90 48.8305 109.82)" fill="#3056D3"/>
<circle id="Ellipse 21" cx="64.3178" cy="109.82" r="1.75993" transform="rotate(-90 64.3178 109.82)" fill="#3056D3"/>
<circle id="Ellipse 31" cx="94.2367" cy="109.82" r="1.75993" transform="rotate(-90 94.2367 109.82)" fill="#3056D3"/>
<circle id="Ellipse 41" cx="124.86" cy="109.82" r="1.75993" transform="rotate(-90 124.86 109.82)" fill="#3056D3"/>
<circle id="Ellipse 26" cx="79.4533" cy="109.82" r="1.75993" transform="rotate(-90 79.4533 109.82)" fill="#3056D3"/>
<circle id="Ellipse 32" cx="109.372" cy="109.82" r="1.75993" transform="rotate(-90 109.372 109.82)" fill="#3056D3"/>
<circle id="Ellipse 42" cx="139.995" cy="109.82" r="1.75993" transform="rotate(-90 139.995 109.82)" fill="#3056D3"/>
<circle id="Ellipse 2" cx="2.36821" cy="94.3327" r="1.75993" transform="rotate(-90 2.36821 94.3327)" fill="#3056D3"/>
<circle id="Ellipse 7" cx="17.8555" cy="94.3327" r="1.75993" transform="rotate(-90 17.8555 94.3327)" fill="#3056D3"/>
<circle id="Ellipse 12" cx="33.3431" cy="94.3327" r="1.75993" transform="rotate(-90 33.3431 94.3327)" fill="#3056D3"/>
<circle id="Ellipse 17" cx="48.8305" cy="94.3327" r="1.75993" transform="rotate(-90 48.8305 94.3327)" fill="#3056D3"/>
<circle id="Ellipse 22" cx="64.3178" cy="94.3329" r="1.75993" transform="rotate(-90 64.3178 94.3329)" fill="#3056D3"/>
<circle id="Ellipse 33" cx="94.2367" cy="94.3329" r="1.75993" transform="rotate(-90 94.2367 94.3329)" fill="#3056D3"/>
<circle id="Ellipse 43" cx="124.86" cy="94.3329" r="1.75993" transform="rotate(-90 124.86 94.3329)" fill="#3056D3"/>
<circle id="Ellipse 27" cx="79.4533" cy="94.3329" r="1.75993" transform="rotate(-90 79.4533 94.3329)" fill="#3056D3"/>
<circle id="Ellipse 34" cx="109.372" cy="94.3329" r="1.75993" transform="rotate(-90 109.372 94.3329)" fill="#3056D3"/>
<circle id="Ellipse 44" cx="139.995" cy="94.3329" r="1.75993" transform="rotate(-90 139.995 94.3329)" fill="#3056D3"/>
<circle id="Ellipse 3" cx="2.36821" cy="78.8454" r="1.75993" transform="rotate(-90 2.36821 78.8454)" fill="#3056D3"/>
<circle id="Ellipse 51" cx="2.36821" cy="32.735" r="1.75993" transform="rotate(-90 2.36821 32.735)" fill="#3056D3"/>
<circle id="Ellipse 8" cx="17.8555" cy="78.8454" r="1.75993" transform="rotate(-90 17.8555 78.8454)" fill="#3056D3"/>
<circle id="Ellipse 52" cx="17.8555" cy="32.735" r="1.75993" transform="rotate(-90 17.8555 32.735)" fill="#3056D3"/>
<circle id="Ellipse 13" cx="33.3431" cy="78.8454" r="1.75993" transform="rotate(-90 33.3431 78.8454)" fill="#3056D3"/>
<circle id="Ellipse 53" cx="33.3431" cy="32.735" r="1.75993" transform="rotate(-90 33.3431 32.735)" fill="#3056D3"/>
<circle id="Ellipse 18" cx="48.8305" cy="78.8454" r="1.75993" transform="rotate(-90 48.8305 78.8454)" fill="#3056D3"/>
<circle id="Ellipse 54" cx="48.8305" cy="32.735" r="1.75993" transform="rotate(-90 48.8305 32.735)" fill="#3056D3"/>
<circle id="Ellipse 23" cx="64.3178" cy="78.8451" r="1.75993" transform="rotate(-90 64.3178 78.8451)" fill="#3056D3"/>
<circle id="Ellipse 55" cx="64.3178" cy="32.7348" r="1.75993" transform="rotate(-90 64.3178 32.7348)" fill="#3056D3"/>
<circle id="Ellipse 35" cx="94.2367" cy="78.8451" r="1.75993" transform="rotate(-90 94.2367 78.8451)" fill="#3056D3"/>
<circle id="Ellipse 56" cx="94.2367" cy="32.7348" r="1.75993" transform="rotate(-90 94.2367 32.7348)" fill="#3056D3"/>
<circle id="Ellipse 45" cx="124.86" cy="78.8451" r="1.75993" transform="rotate(-90 124.86 78.8451)" fill="#3056D3"/>
<circle id="Ellipse 57" cx="124.86" cy="32.7348" r="1.75993" transform="rotate(-90 124.86 32.7348)" fill="#3056D3"/>
<circle id="Ellipse 28" cx="79.4533" cy="78.8451" r="1.75993" transform="rotate(-90 79.4533 78.8451)" fill="#3056D3"/>
<circle id="Ellipse 58" cx="79.4533" cy="32.7348" r="1.75993" transform="rotate(-90 79.4533 32.7348)" fill="#3056D3"/>
<circle id="Ellipse 36" cx="109.372" cy="78.8451" r="1.75993" transform="rotate(-90 109.372 78.8451)" fill="#3056D3"/>
<circle id="Ellipse 59" cx="109.372" cy="32.7348" r="1.75993" transform="rotate(-90 109.372 32.7348)" fill="#3056D3"/>
<circle id="Ellipse 46" cx="139.995" cy="78.8451" r="1.75993" transform="rotate(-90 139.995 78.8451)" fill="#3056D3"/>
<circle id="Ellipse 60" cx="139.995" cy="32.7348" r="1.75993" transform="rotate(-90 139.995 32.7348)" fill="#3056D3"/>
<circle id="Ellipse 4" cx="2.36821" cy="63.3579" r="1.75993" transform="rotate(-90 2.36821 63.3579)" fill="#3056D3"/>
<circle id="Ellipse 61" cx="2.36821" cy="17.2475" r="1.75993" transform="rotate(-90 2.36821 17.2475)" fill="#3056D3"/>
<circle id="Ellipse 9" cx="17.8555" cy="63.3579" r="1.75993" transform="rotate(-90 17.8555 63.3579)" fill="#3056D3"/>
<circle id="Ellipse 62" cx="17.8555" cy="17.2475" r="1.75993" transform="rotate(-90 17.8555 17.2475)" fill="#3056D3"/>
<circle id="Ellipse 14" cx="33.3431" cy="63.3579" r="1.75993" transform="rotate(-90 33.3431 63.3579)" fill="#3056D3"/>
<circle id="Ellipse 63" cx="33.3431" cy="17.2475" r="1.75993" transform="rotate(-90 33.3431 17.2475)" fill="#3056D3"/>
<circle id="Ellipse 19" cx="48.8305" cy="63.3579" r="1.75993" transform="rotate(-90 48.8305 63.3579)" fill="#3056D3"/>
<circle id="Ellipse 64" cx="48.8305" cy="17.2475" r="1.75993" transform="rotate(-90 48.8305 17.2475)" fill="#3056D3"/>
<circle id="Ellipse 24" cx="64.3178" cy="63.3579" r="1.75993" transform="rotate(-90 64.3178 63.3579)" fill="#3056D3"/>
<circle id="Ellipse 65" cx="64.3178" cy="17.2475" r="1.75993" transform="rotate(-90 64.3178 17.2475)" fill="#3056D3"/>
<circle id="Ellipse 37" cx="94.2367" cy="63.3579" r="1.75993" transform="rotate(-90 94.2367 63.3579)" fill="#3056D3"/>
<circle id="Ellipse 66" cx="94.2367" cy="17.2475" r="1.75993" transform="rotate(-90 94.2367 17.2475)" fill="#3056D3"/>
<circle id="Ellipse 47" cx="124.86" cy="63.3579" r="1.75993" transform="rotate(-90 124.86 63.3579)" fill="#3056D3"/>
<circle id="Ellipse 67" cx="124.86" cy="17.2475" r="1.75993" transform="rotate(-90 124.86 17.2475)" fill="#3056D3"/>
<circle id="Ellipse 29" cx="79.4533" cy="63.3579" r="1.75993" transform="rotate(-90 79.4533 63.3579)" fill="#3056D3"/>
<circle id="Ellipse 68" cx="79.4533" cy="17.2475" r="1.75993" transform="rotate(-90 79.4533 17.2475)" fill="#3056D3"/>
<circle id="Ellipse 38" cx="109.372" cy="63.3579" r="1.75993" transform="rotate(-90 109.372 63.3579)" fill="#3056D3"/>
<circle id="Ellipse 69" cx="109.372" cy="17.2475" r="1.75993" transform="rotate(-90 109.372 17.2475)" fill="#3056D3"/>
<circle id="Ellipse 48" cx="139.995" cy="63.3579" r="1.75993" transform="rotate(-90 139.995 63.3579)" fill="#3056D3"/>
<circle id="Ellipse 70" cx="139.995" cy="17.2475" r="1.75993" transform="rotate(-90 139.995 17.2475)" fill="#3056D3"/>
<circle id="Ellipse 5" cx="2.36821" cy="47.8704" r="1.75993" transform="rotate(-90 2.36821 47.8704)" fill="#3056D3"/>
<circle id="Ellipse 71" cx="2.36821" cy="1.75996" r="1.75993" transform="rotate(-90 2.36821 1.75996)" fill="#3056D3"/>
<circle id="Ellipse 10" cx="17.8555" cy="47.8704" r="1.75993" transform="rotate(-90 17.8555 47.8704)" fill="#3056D3"/>
<circle id="Ellipse 72" cx="17.8555" cy="1.75996" r="1.75993" transform="rotate(-90 17.8555 1.75996)" fill="#3056D3"/>
<circle id="Ellipse 15" cx="33.3431" cy="47.8704" r="1.75993" transform="rotate(-90 33.3431 47.8704)" fill="#3056D3"/>
<circle id="Ellipse 73" cx="33.3431" cy="1.75996" r="1.75993" transform="rotate(-90 33.3431 1.75996)" fill="#3056D3"/>
<circle id="Ellipse 20" cx="48.8305" cy="47.8704" r="1.75993" transform="rotate(-90 48.8305 47.8704)" fill="#3056D3"/>
<circle id="Ellipse 74" cx="48.8305" cy="1.75996" r="1.75993" transform="rotate(-90 48.8305 1.75996)" fill="#3056D3"/>
<circle id="Ellipse 25" cx="64.3178" cy="47.8706" r="1.75993" transform="rotate(-90 64.3178 47.8706)" fill="#3056D3"/>
<circle id="Ellipse 75" cx="64.3178" cy="1.76021" r="1.75993" transform="rotate(-90 64.3178 1.76021)" fill="#3056D3"/>
<circle id="Ellipse 39" cx="94.2367" cy="47.8706" r="1.75993" transform="rotate(-90 94.2367 47.8706)" fill="#3056D3"/>
<circle id="Ellipse 76" cx="94.2367" cy="1.76021" r="1.75993" transform="rotate(-90 94.2367 1.76021)" fill="#3056D3"/>
<circle id="Ellipse 49" cx="124.86" cy="47.8706" r="1.75993" transform="rotate(-90 124.86 47.8706)" fill="#3056D3"/>
<circle id="Ellipse 77" cx="124.86" cy="1.76027" r="1.75993" transform="rotate(-90 124.86 1.76027)" fill="#3056D3"/>
<circle id="Ellipse 30" cx="79.4533" cy="47.8706" r="1.75993" transform="rotate(-90 79.4533 47.8706)" fill="#3056D3"/>
<circle id="Ellipse 78" cx="79.4533" cy="1.76021" r="1.75993" transform="rotate(-90 79.4533 1.76021)" fill="#3056D3"/>
<circle id="Ellipse 40" cx="109.372" cy="47.8706" r="1.75993" transform="rotate(-90 109.372 47.8706)" fill="#3056D3"/>
<circle id="Ellipse 79" cx="109.372" cy="1.76021" r="1.75993" transform="rotate(-90 109.372 1.76021)" fill="#3056D3"/>
<circle id="Ellipse 50" cx="139.995" cy="47.8706" r="1.75993" transform="rotate(-90 139.995 47.8706)" fill="#3056D3"/>
<circle id="Ellipse 80" cx="139.995" cy="1.76027" r="1.75993" transform="rotate(-90 139.995 1.76027)" fill="#3056D3"/>
</g>
</svg>
